<svg xmlns="http://www.w3.org/2000/svg" xmlns:xlink="http://www.w3.org/1999/xlink" width="100%" height="100%" viewBox="0 0 24 24" enable-background="new 0 0 24.0 24.0">
  <!-- background -->
  <g fill-rule="nonzero">
    <path fill="#367a00" fill-opacity="1" d="M0 0H24V24H0z"/>
    <path fill="#000" fill-opacity=".5" d="M0 24 7.39 12.03l4.83 5.16L14.48 7.15l2.79.43L24 0V24"/>
  </g>
  <!-- foreground -->
  <g fill-rule="nonzero">
    <!-- coins -->
    <g>
      <path fill="#c89e00" fill-opacity="1" d="M13.33 10.28h1.96a2.32 2.32.0 012.32 2.32v2.7a2.32 2.32.0 01-2.32 2.32H13.33A2.32 2.32.0 0111.01 15.3V12.6a2.32 2.32.0 012.32-2.32z"/>
      <path fill="#ffd700" fill-opacity="1" d="M13.47 10.21h1.96a2.32 2.32.0 012.32 2.32v2.7a2.32 2.32.0 01-2.32 2.32H13.47a2.32 2.32.0 01-2.32-2.32v-2.7a2.32 2.32.0 012.32-2.32z"/>
      <path fill="#000" fill-opacity=".5" d="M13.7 10.94h1.61a1.9 1.9.0 011.89 1.9v2.08a1.9 1.9.0 01-1.89 1.9H13.7a1.9 1.9.0 01-1.89-1.9V12.84a1.9 1.9.0 011.89-1.9z"/>
      <path fill="#d4af37" fill-opacity="1" d="M13.65 10.94h1.6a1.9 1.9.0 011.9 1.9v2.08a1.9 1.9.0 01-1.9 1.9h-1.6a1.9 1.9.0 01-1.9-1.9V12.84a1.9 1.9.0 011.9-1.9z"/>
      <path fill="#000" fill-opacity=".5" d="M14.98 14.54Q15.14 14.49 15.37 14.29C15.6 14.05 15.95 14.31 15.76 14.53Q15.37 14.88 15.01 14.99V15.54C15.01 15.84 14.6 15.84 14.6 15.54L14.58 15.05Q14.42 15.06 14.29 15.04L14.28 15.54C14.28 15.84 13.87 15.84 13.87 15.54V14.93C12.96 14.57 12.92 13.35 13.87 12.77L13.86 12.16C13.86 11.87 14.28 11.87 14.28 12.16L14.27 12.61Q14.41 12.58 14.58 12.57L14.59 12.16C14.59 11.87 15 11.87 15 12.16v.44Q15.38 12.66 15.62 12.93C15.88 13.2 15.57 13.49 15.3 13.27Q15.16 13.05 15 13.01zM13.9 13.29C13.6 13.61 13.53 14.19 13.89 14.47L13.9 13.29zM14.3 13.09 14.28 14.61Q14.45 14.66 14.62 14.66L14.63 13.02Q14.44 13.03 14.3 13.09z"/>
      <path fill="#ffd700" fill-opacity="1" d="M15.05 14.51Q15.21 14.46 15.44 14.26C15.66 14.02 16.02 14.28 15.82 14.49Q15.44 14.84 15.07 14.96V15.51C15.07 15.8 14.66 15.8 14.66 15.51L14.64 15.02Q14.49 15.03 14.35 15.01v.5C14.35 15.8 13.93 15.8 13.93 15.51V14.9C13.02 14.54 12.99 13.32 13.93 12.74V12.13C13.93 11.84 14.34 11.84 14.34 12.13V12.58Q14.47 12.55 14.65 12.54V12.13C14.65 11.84 15.07 11.84 15.07 12.13v.43Q15.45 12.63 15.68 12.9C15.94 13.17 15.64 13.46 15.36 13.24Q15.23 13.02 15.07 12.98zm-1.09-1.25C13.66 13.57 13.6 14.16 13.95 14.43L13.96 13.26zM14.36 13.06 14.34 14.57Q14.51 14.63 14.68 14.62L14.69 12.99Q14.5 13 14.36 13.06z"/>
    </g>
    <!-- pickaxe -->
    <g>
      <path fill="#7e5400" fill-opacity="1" d="M10.5 6.24C11.21 6.55 11.58 6.71 12.52 6.9L9.16 16.18c-.84.59-1.69.25-1.75-.59L10.5 6.24z"/>
      <path fill="#8b5b00" fill-opacity="1" d="M10.49 6.25C10.51 6.2 10.98 6.31 11.54 6.48 12.1 6.66 12.54 6.84 12.53 6.89 12.51 6.93 12.05 6.83 11.48 6.65 10.92 6.47 10.48 6.29 10.49 6.25z"/>
      <path fill="#c1c9ff" fill-opacity="1" d="M16.57 10.75q-.76-1.33-3.88-2.67Q12.55 7.87 12.25 7.64L12.15 7.92C11.8 7.99 10.23 7.54 10.23 7.05L10.28 6.9q-2.14-.61-3.83-.82-.19.24-.21.54-.16 1.51 1.32 1.9l1.88.5Q10.29 9.9 11.63 9.93C13.21 9.81 14.73 10.94 16.57 10.75z"/><path fill="#000" fill-opacity=".188" d="M10.5 6.24Q10.57 6.32 10.92 6.44 10.61 7.37 10.61 7.49 9.09 6.73 10.23 7.05z"/>
      <!-- shadows -->
      <path fill="#000" fill-opacity=".125" 
          d="M9.52 9.19C10.16 9.6 10.52 9.83 11.41 9.98L11.3 10.26C10.99 10.28 10.63 10.17 10.24 9.99L8.27 15.53C8.23 15.95 8.55 16.25 9.16 16.18 8.4 16.74 7.49 16.47 7.41 15.6L9.52 9.19z
             M11.63 9.93 12.17 8.38q2.56 1.01 4.4 2.37c-1.84.19-3.36-.94-4.94-.82z
             M9.44 9.02 7.91 8.61Q6.08 8.34 6.24 6.62l3.68.82-.48 1.58z"/>
      <path fill="#000" fill-opacity=".25" d="M12.17 8.38Q10.87 8.39 9.92 7.44L9.44 9.02Q10.3 9.92 11.63 9.93"/>
    </g>
  </g>
</svg>